<?xml version="1.0" encoding="UTF-8" standalone="no"?>
<!-- Created with Inkscape (http://www.inkscape.org/) -->

<svg
   width="512"
   height="512"
   viewBox="0 0 512 512"
   version="1.1"
   id="svg1"
   xml:space="preserve"
   xmlns="http://www.w3.org/2000/svg"
   xmlns:svg="http://www.w3.org/2000/svg"><defs
     id="defs1" /><g
     id="layer1"><path
       style="fill:none;fill-opacity:1;stroke:#53311c;stroke-width:23.9856;stroke-linecap:round;stroke-linejoin:round;stroke-opacity:1"
       d="M 166.66725,166.66726 V 97.882305 a 50,50 135 0 1 50,-50 h 79.55864 a 50,50 45 0 1 50,50 v 69.705765"
       id="path14"
       transform="matrix(1.0671373,0,0,1.067477,-16.681072,-16.904335)" /><path
       id="rect13"
       style="fill:#78462d;fill-opacity:1;stroke:#53311c;stroke-width:23.9856;stroke-linecap:round;stroke-linejoin:round;stroke-opacity:1"
       d="M 77.624407,145.77089 H 433.42711 a 50,50 45 0 1 50,50 l 0,218.31915 a 50,50 135 0 1 -50,50 H 77.624407 a 50,50 45 0 1 -50,-50 l 0,-218.31915 a 50,50 135 0 1 50,-50 z"
       transform="matrix(1.0671373,0,0,1.067477,-16.681072,-16.904335)" /><path
       style="opacity:1;fill:none;stroke:#53311c;stroke-width:25.6;stroke-linecap:round;stroke-linejoin:round;stroke-opacity:1"
       d="M 15.19768,318.28344 256.5061,382.92297 497.81451,318.28344"
       id="path2" /><ellipse
       style="opacity:1;fill:#efb14c;fill-opacity:1;stroke:#cb9442;stroke-width:25.6;stroke-linecap:round;stroke-linejoin:round;stroke-opacity:1"
       id="path4"
       cx="256.50607"
       cy="284.12418"
       rx="38.215511"
       ry="38.227673" /></g></svg>
