<?xml version="1.0" encoding="UTF-8" standalone="no"?>
<!-- Created with Inkscape (http://www.inkscape.org/) -->

<svg
   width="512"
   height="512"
   viewBox="0 0 512 512"
   version="1.1"
   id="svg1"
   inkscape:version="1.4.3 (0d15f75, 2025-12-25)"
   sodipodi:docname="Resume.svg"
   xml:space="preserve"
   xmlns:inkscape="http://www.inkscape.org/namespaces/inkscape"
   xmlns:sodipodi="http://sodipodi.sourceforge.net/DTD/sodipodi-0.dtd"
   xmlns="http://www.w3.org/2000/svg"
   xmlns:svg="http://www.w3.org/2000/svg"><sodipodi:namedview
     id="namedview1"
     pagecolor="#636363"
     bordercolor="#eeeeee"
     borderopacity="1"
     inkscape:showpageshadow="true"
     inkscape:pageopacity="0"
     inkscape:pagecheckerboard="0"
     inkscape:deskcolor="#222222"
     inkscape:document-units="px"
     inkscape:zoom="1.0859962"
     inkscape:cx="58.471661"
     inkscape:cy="204.42061"
     inkscape:window-width="1920"
     inkscape:window-height="1051"
     inkscape:window-x="-9"
     inkscape:window-y="-9"
     inkscape:window-maximized="1"
     inkscape:current-layer="g8"><inkscape:page
       x="0"
       y="0"
       width="512"
       height="512"
       id="page2"
       margin="0"
       bleed="0" /></sodipodi:namedview><defs
     id="defs1" /><g
     inkscape:label="Resume"
     inkscape:groupmode="layer"
     id="layer1"><g
       id="g7"
       inkscape:label="paper"
       transform="translate(-2.166994,0.225588)"><path
         id="path3"
         style="display:inline;opacity:1;fill:#ffffff;fill-opacity:1;stroke:#dedede;stroke-width:25.6;stroke-linecap:round;stroke-linejoin:round;stroke-opacity:1"
         d="M 64.460938,495.27148 451.87305,147.95703 320.19141,16.277344 Z"
         sodipodi:nodetypes="cccc" /><path
         id="rect1"
         style="display:inline;opacity:1;fill:#ffffff;fill-opacity:1;stroke:#dedede;stroke-width:25.6;stroke-linecap:round;stroke-linejoin:round;stroke-opacity:1"
         d="M 64.460938,16.277344 V 495.27148 H 451.87305 V 147.957 H 320.191 V 16.277344 Z"
         sodipodi:nodetypes="ccccccc" /></g><g
       id="g6"
       inkscape:label="initials"
       style="stroke:#0f4761;stroke-width:0.838548;stroke-opacity:1"
       transform="matrix(1.180135,0,0,1.2050707,-29.579216,-24.020786)"><path
         style="opacity:1;fill:#ffffff;fill-opacity:1;stroke:#0f4761;stroke-width:21.4668;stroke-linecap:round;stroke-linejoin:round;stroke-opacity:1"
         d="M 117.20043,139.33829 V 67.064692 l 24.41675,22.137859 24.41676,-22.137859 v 72.273598"
         id="path4"
         sodipodi:nodetypes="ccccc"
         inkscape:label="M" /><path
         style="opacity:1;fill:#ffffff;fill-opacity:1;stroke:#0f4761;stroke-width:21.4668;stroke-linecap:round;stroke-linejoin:round;stroke-opacity:1"
         d="m 251.79214,80.50606 c -17.73317,-19.538095 -33.16859,-17.238695 -42.83779,-2.92023 0,0 -9.01049,12.231677 -0.66141,43.81662 8.34908,31.58493 46.29336,10.28107 46.29336,10.28107 l -0.55883,-23.47912 h -16.77011"
         id="path5"
         sodipodi:nodetypes="ccsccc"
         inkscape:label="G" /></g><g
       id="g8"
       inkscape:label="text"><path
         style="opacity:1;fill:none;fill-opacity:1;stroke:#5d5d5d;stroke-width:21.4668;stroke-linecap:round;stroke-linejoin:round;stroke-opacity:1"
         d="m 112.05666,220.92896 16.8277,-16.47951 20.96566,20.53184 27.86227,-27.28573 19.31048,18.91091 12.41388,-12.15702 22.89671,22.42293 20.6898,-20.26168 20.41394,19.99153 29.51744,-28.90667 21.79326,21.34231 17.6553,-17.28997 25.10361,24.58417"
         id="path7"
         transform="matrix(1.180135,0,0,1.2050707,-26.974762,-24.020786)"
         inkscape:label="line2" /><path
         style="opacity:1;fill:none;fill-opacity:1;stroke:#5d5d5d;stroke-width:25.6;stroke-linecap:round;stroke-linejoin:round;stroke-opacity:1"
         d="m 410.15111,318.06895 -26.37008,26.3701 -30.60234,-30.60235 -26.69566,26.69567 -16.6034,-16.6034 -25.71897,25.71899 -42.64794,-42.64794 -24.09119,24.0912 -16.27784,-16.27783 -24.0912,24.09119 -22.46342,-22.46341 -31.579,31.579 -21.16119,-21.16118"
         id="path8"
         inkscape:label="line1" /><g
         id="g13"
         transform="translate(0,24.0912)"
         style="fill:#436f83;fill-opacity:1;stroke:none;stroke-opacity:1"><circle
           style="opacity:1;fill:#436f83;fill-opacity:1;stroke:none;stroke-width:25.6;stroke-linecap:round;stroke-linejoin:round;stroke-opacity:1"
           id="path9"
           cx="115.24709"
           cy="393.92368"
           r="16.277838" /><circle
           style="fill:#436f83;fill-opacity:1;stroke:none;stroke-width:25.6;stroke-linecap:round;stroke-linejoin:round;stroke-opacity:1"
           id="circle10"
           cx="283.69949"
           cy="393.66534"
           r="16.277838" /></g><path
         style="opacity:1;fill:none;fill-opacity:1;stroke:#5d5d5d;stroke-width:25.6;stroke-linecap:round;stroke-linejoin:round;stroke-opacity:1"
         d="m 153.01168,435.59494 27.02121,-27.02121 20.51007,20.51007 15.62673,-15.62672 16.27783,16.27784"
         id="path13"
         sodipodi:nodetypes="ccccc" /><path
         style="opacity:1;fill:none;fill-opacity:1;stroke:#5d5d5d;stroke-width:25.6;stroke-linecap:round;stroke-linejoin:round;stroke-opacity:1"
         d="m 327.83565,405.96927 27.67233,27.67233 14.65005,-14.65006 8.46448,8.46448 23.76564,-23.76564"
         id="path14"
         sodipodi:nodetypes="ccccc" /></g></g></svg>
