<?xml version="1.0" encoding="UTF-8" standalone="no"?>
<!-- Created with Inkscape (http://www.inkscape.org/) -->

<svg
   width="512"
   height="512"
   viewBox="0 0 512 512"
   version="1.1"
   id="svg1"
   xml:space="preserve"
   xmlns="http://www.w3.org/2000/svg"
   xmlns:svg="http://www.w3.org/2000/svg"><defs
     id="defs1" /><g
     id="layer1"
     style="display:inline"><g
       id="g4"
       transform="translate(-14.719975,-24.82237)"
       style="display:inline;opacity:0.25;mix-blend-mode:darken"><path
         id="path7"
         style="display:inline;fill:#edd4ae"
         d="M 252.92299,152.64601 C 103.70378,194.77415 87.11312,170.72782 96.860811,273.77884 c 4.693409,49.61796 9.480429,195.61802 39.694949,185.2087 277.69486,-95.66977 279.15849,-64.25426 284.11655,-180.65962 1.49484,-35.0959 6.94434,-106.36236 -0.23559,-139.3935 -16.08945,3.79484 -11.83244,8.45129 -18.58441,-13.7857 -2.45176,-8.07465 -25.39871,-7.37835 -148.92932,27.49729 z" /><path
         id="path6"
         style="display:inline;fill:#f4c55e"
         d="m 376.4231,94.156354 c -35.6732,5.816775 -69.52632,19.758296 -104.01758,30.269536 -18.12533,4.2221 -36.1095,15.98011 -54.7195,14.23565 -8.81766,-18.64559 -30.42599,-22.88808 -48.54886,-15.52218 -24.12099,9.10494 -50.2718,13.61591 -72.84548,26.38002 -24.249958,16.31575 -19.580516,48.60085 -18.442103,73.72977 2.507452,61.12428 9.648402,121.93758 13.950476,182.94236 3.368243,24.0874 1.200211,52.51905 21.645297,69.90693 21.64925,14.57659 48.71582,2.93137 70.70091,-4.81816 46.10037,-17.02191 92.7399,-32.6597 139.07957,-48.98135 33.6129,-12.12363 68.48525,-21.6385 100.73344,-36.93062 19.6702,-11.61394 21.02721,-37.30171 24.17061,-57.64021 6.92119,-48.38802 17.02726,-96.38663 20.54003,-145.18454 3.45952,-17.26999 -6.71625,-38.12235 -26.65106,-36.07448 -11.81054,2.64565 -20.67284,6.33924 -22.55159,-6.7416 -23.38737,8.97104 -9.57389,-26.95468 -21.95876,-37.88889 -4.99863,-6.243536 -13.45028,-8.134742 -21.0854,-7.682236 z m 3.30273,31.449216 c 12.18846,15.66739 -25.52761,14.02849 -35.42326,20.29231 -30.83694,11.23825 -62.64067,19.27177 -94.64891,26.39923 -40.39834,11.87933 -80.39372,24.97348 -119.60165,40.2987 -13.38471,5.75999 25.16388,-5.18956 30.86914,-8.53516 28.90654,-11.30889 59.34638,-18.21253 88.90212,-27.67305 29.19681,-6.82466 58.60571,-12.93444 86.58225,-24.0164 22.48105,-5.58429 44.35276,-14.55168 66.97514,-18.79778 -3.01196,15.5522 -31.60835,13.4591 -45.17878,21.33736 -25.95409,8.93291 -52.46838,16.10432 -78.36283,24.92228 -21.96183,-7.73079 -43.4839,5.67111 -64.55462,10.69829 -18.74386,3.93133 -32.61354,17.11596 -49.15692,24.7712 -9.40105,2.06233 -36.3853,15.65228 -11.39327,7.68935 8.3751,-3.54321 20.97217,-9.60205 12.00724,4.62004 -6.43314,23.9669 -7.647,49.16682 -11.28372,73.71412 -4.00262,41.78047 -8.89541,83.48471 -15.69105,124.89426 0.71517,9.61366 -3.257,23.18332 -2.50947,5.49871 3.2001,-37.98186 4.27027,-76.13299 4.53732,-114.22394 -0.58646,-26.80943 0.71415,-53.6705 0.29442,-80.4403 -9.88607,5.72266 1.36438,22.01917 -3.54239,34.79814 -1.10085,56.12234 -3.66426,112.21183 -4.78268,168.32462 -4.12246,-9.71821 1.04029,-33.45755 -5.98891,-36.73124 -3.65841,11.92307 7.35385,36.95889 -0.99657,41.70223 -7.90894,-13.84331 -2.3476,-32.3295 -5.06399,-48.04304 -2.14037,-33.50921 -8.55231,-66.56156 -10.50437,-100.11321 -2.93362,-29.23785 -6.3071,-58.49353 -8.6371,-87.74402 15.60967,-6.18004 33.29982,-9.61722 49.7289,-14.75793 59.13846,-18.53956 119.01897,-35.33533 178.19223,-54.04437 16.54377,-4.5288 32.77026,-10.13282 49.23173,-14.8404 z m 38.71289,14.91993 c 9.79504,17.4332 -26.09189,14.59697 -35.52229,23.03156 -29.23586,9.38978 -57.8885,20.67266 -87.42342,29.06922 -14.34976,-3.1509 -12.54216,-14.17329 1.60763,-14.20978 40.8046,-11.4844 80.74537,-25.93822 121.33808,-37.891 z m -298.55078,90.20703 c -2.08248,35.64884 0.88883,71.46585 4.63479,106.88476 1.52987,15.16465 0.77766,31.7902 1.73601,47.89519 -1.57101,11.60981 4.31846,20.79863 2.84024,4.12041 0.65929,-14.10645 -1.68555,-28.49824 -0.76758,-42.5625 -2.86658,-36.87329 -6.54273,-73.69335 -7.35612,-110.72315 -1.36778,0.0838 0.77986,-5.6302 -1.08734,-5.61471 z m 13.25196,215.04882 c 3.58254,4.258 -3.12075,1.99915 0,0 z" /><path
         id="path5"
         style="display:inline;fill:#dfa854"
         d="m 361.03766,96.920896 c -29.15318,7.522624 -40.09971,12.956024 -68.84397,21.150624 -22.88246,6.95008 -40.18423,12.62436 -68.77041,21.04005 -16.31785,-11.6175 -18.4552,-26.44423 -52.15012,-16.22785 -24.6828,7.48388 -46.22178,12.85865 -73.213676,25.6317 -23.09986,10.93127 -21.82124,40.68459 -20.865991,62.87049 3.027086,70.30486 10.459499,140.35342 16.398938,210.47315 1.875092,22.13693 5.560596,52.90614 30.667989,59.37123 29.58225,7.61735 57.80712,-9.99216 85.23702,-19.32498 64.84529,-22.06313 129.58623,-44.46636 193.97129,-67.81061 32.36679,-11.73531 35.54769,-15.19941 43.19971,-60.38296 10.31116,-60.88513 17.74886,-98.37369 22.80583,-162.81877 1.88047,-23.96432 -21.98808,-30.09167 -43.93509,-22.14026 1.03451,-14.51127 -6.24712,-15.63145 -16.93855,-13.15548 -4.15876,-13.44306 -7.61139,-31.82947 -13.04677,-38.751919 -7.01701,-8.93679 -16.54478,-4.561718 -34.5162,0.07559 z m 18.68622,28.684674 c 5.79074,20.80252 -31.95987,13.12287 -43.95804,23.316 -45.17632,15.95673 -92.88134,22.91062 -137.90076,39.41387 -23.7049,8.00469 -47.5666,15.83875 -70.56354,25.68459 26.80186,-4.7393 51.24298,-18.3916 77.85083,-24.49991 29.56234,-9.00909 59.36934,-16.83985 89.44826,-23.90728 36.51018,-9.83176 71.77564,-24.01084 108.77906,-32.03942 -9.31545,19.03146 -36.45124,13.60669 -52.69423,23.97445 -23.72044,7.65712 -47.73442,14.39245 -71.31379,22.48812 -25.50958,-7.92346 -49.54295,8.74194 -73.89767,13.80972 -18.5678,8.85013 -35.20276,21.47656 -55.07915,27.62805 -19.97729,13.15219 33.70525,-15.90496 16.4638,6.0908 -10.83903,49.30366 -12.3191,100.07453 -19.57906,149.94719 -1.8834,19.78903 -7.20443,38.98391 -7.86976,58.86922 -3.94103,11.73973 -1.00196,-17.21388 -0.97118,-23.33956 5.06359,-58.21872 2.13467,-116.70266 3.94542,-175.03794 -8.05222,14.34769 -0.37804,35.39657 -4.06971,52.4439 -1.9432,49.94912 -2.63957,99.94627 -4.92526,149.88738 -3.99269,-8.93258 2.20488,-35.08526 -6.13554,-33.87993 -2.08329,9.65535 8.46617,38.00524 -1.82664,35.81299 -6.13229,-19.89661 -0.70513,-41.19877 -5.21143,-61.50921 -7.16744,-56.91513 -11.60392,-114.11445 -18.20275,-171.08859 27.36531,-9.99403 56.03504,-16.00044 83.62325,-25.4486 64.77671,-19.27862 129.45693,-38.86737 194.08789,-58.61584 z m 38.75,14.87891 c 4.12869,22.24821 -32.02623,16.07218 -44.98086,26.55806 -25.69655,8.57629 -51.11639,17.98118 -76.99165,26.0197 -17.25137,-2.14881 -9.42974,-18.11947 4.42261,-15.73274 39.48224,-11.31629 78.174,-25.18148 117.5499,-36.84502 z m 28.06836,17.33396 c 22.76569,12.23588 6.36866,41.72712 5.89488,61.4591 -6.62975,43.71164 -13.02276,87.49694 -20.80217,130.99126 -2.5628,21.98008 -24.26177,29.49364 -42.07569,36.08356 -77.71995,26.55625 -155.41133,53.32135 -232.20188,82.48199 -17.67501,11.36973 -15.19017,-7.10966 -7.83985,-16.8393 4.93339,-34.26025 10.76864,-69.07853 13.81989,-103.86366 3.91937,-35.0532 6.25153,-70.42439 12.63641,-105.11163 5.11605,-23.29494 25.7034,-37.57529 48.17534,-41.2529 21.18953,-8.55039 44.82697,-18.25326 63.35986,0.0808 22.88595,8.3245 44.33122,-10.68614 66.68194,-14.4279 29.4023,-9.51472 58.18741,-21.32697 88.01767,-29.27579 z m -326.6543,72.91407 c -3.80581,50.12184 6.90561,99.7676 6.06987,149.82783 -1.96788,7.66424 3.77365,27.79427 2.9826,9.3891 0.75252,-51.64432 -7.24355,-102.84098 -7.94954,-154.44037 -2.18762,1.25156 0.76797,-4.28868 -1.10293,-4.77656 z" /><path
         style="display:inline;fill:#d66920;fill-opacity:1"
         d="M 131.24833,481.45349 C 109.46463,479.97851 97.625592,463.43667 95.789941,444.044 88.304785,364.96734 80.806617,278.70016 75.997934,199.35816 c -1.216347,-21.13578 7.580821,-42.71703 27.482026,-52.963 25.23004,-10.55607 57.01397,-20.88239 83.63287,-26.74851 18.69372,-4.11962 30.57747,22.18359 52.95484,15.01598 44.04624,-14.1083 87.86511,-28.0692 127.46419,-39.646928 30.27254,-8.850894 32.35997,4.324184 38.2991,35.276838 -19.47077,6.80274 -14.67167,-19.19539 -22.38494,-23.11883 -6.87327,-5.81344 -37.56534,4.60332 -64.73686,13.94255 -30.50979,10.48664 -76.72106,27.55924 -92.62173,28.14882 -12.63251,0.4684 -25.31236,-24.02578 -54.00871,-13.0599 -32.30925,12.34649 -58.14224,12.6542 -75.554852,32.75176 -15.176451,22.44644 -9.458419,35.98069 -5.039254,87.16838 4.419165,51.18769 9.121136,129.84597 18.317566,194.04959 3.1341,21.88034 29.60056,14.83744 26.84981,-4.94309 6.95882,-11.63091 4.98472,-32.40995 9.06547,-47.51401 8.18925,-56.71413 10.712,-114.27271 21.96012,-170.52859 9.73198,-27.04303 41.62464,-32.46528 65.46859,-41.02756 21.85827,-10.8753 44.53719,-8.48264 63.34765,6.61866 21.29175,-1.6512 41.56125,-14.60949 62.84047,-19.94456 20.2408,-7.91738 42.34864,-12.87024 61.5863,-22.16247 2.15349,-6.56915 1.7173,-14.14542 3.48243,-3.07373 19.18209,-2.25296 47.78845,3.57787 43.2065,28.86976 0.56379,31.92408 -8.70877,62.94082 -11.32802,94.60248 -9.47612,32.18923 -6.89396,66.92938 -19.22151,98.33876 -9.16741,18.17299 -31.9377,22.0126 -49.28237,29.2859 -56.7721,19.26709 -113.05393,39.94013 -169.89533,58.98403 -28.44067,8.63717 -56.07461,25.47234 -86.63396,23.773 z m 18.54182,-8.69633 c 44.42829,-16.76736 89.1757,-32.6266 133.85671,-48.68368 43.70436,-16.11976 88.53761,-29.47681 131.6898,-46.85939 22.60015,-15.50122 18.74106,-46.13267 24.36963,-69.74781 6.84093,-40.55927 12.31785,-81.35639 19.37238,-121.85045 7.18042,-26.50054 -21.26505,-35.24582 -39.91706,-21.72752 -39.59124,13.93973 -79.38072,28.01304 -119.72979,39.83888 -18.77896,-2.394 -31.35029,-19.31902 -53.79001,-9.99923 -19.858,8.24753 -44.93604,9.64158 -59.58036,26.93427 -17.60523,23.88245 -14.25918,55.31431 -19.12711,83.10797 -6.24516,53.05908 -8.99445,106.98837 -22.04372,158.9037 -7.55309,9.67286 -9.30425,14.11275 4.89953,10.08326 z"
         id="path4" /></g></g><path
     style="display:inline;fill:#f4c55e;stroke:#cfa84d;stroke-width:10.24;stroke-linecap:round;stroke-linejoin:round;stroke-dasharray:none;stroke-opacity:1"
     d="M 59.064994,498.89947 37.315438,482.28284 5.1199878,134.90141 29.346306,89.777734 148.50374,51.71518 188.79197,75.789511 389.32279,11.198099 416.59294,21.819164 478.90023,295.35654 Z"
     id="path45" /><g
     id="g3"
     transform="matrix(1.3082312,0,0,1.3082312,-87.253896,-79.077064)"
     style="stroke:#dbaf73;stroke-width:7.82736;stroke-linecap:round;stroke-linejoin:round;stroke-dasharray:none;stroke-dashoffset:0;stroke-opacity:1;paint-order:normal"><path
       id="rect1"
       style="display:inline;fill:#edd4ae;stroke:#dbaf73;stroke-width:7.82737;stroke-linecap:round;stroke-linejoin:round;stroke-dasharray:none;stroke-dashoffset:0;stroke-opacity:1;paint-order:normal"
       d="m 85.055818,178.41981 275.366962,-83.5488 23.3497,230.22193 -278.36696,85.04881 z" /><path
       id="path1"
       style="display:inline;fill:#edd4ae;stroke:#dbaf73;stroke-width:7.82737;stroke-linecap:round;stroke-linejoin:round;stroke-dasharray:none;stroke-dashoffset:0;stroke-opacity:1;paint-order:normal"
       d="M 102.04249,184.17616 379.41411,107.54495 396.9949,338.27913 116.58667,416.33481 Z" /><path
       id="path3"
       style="display:inline;fill:#edd4ae;stroke:#dbaf73;stroke-width:7.82737;stroke-linecap:round;stroke-linejoin:round;stroke-dasharray:none;stroke-dashoffset:0;stroke-opacity:1;paint-order:normal"
       d="m 116.55485,196.70242 276.61343,-79.32449 19.82339,230.55233 -279.63604,80.77841 z" /></g><path
     style="display:inline;opacity:1;fill:#f4c55e;stroke:#cfa84d;stroke-width:10.24;stroke-linecap:round;stroke-linejoin:round;stroke-dasharray:none;stroke-dashoffset:0;stroke-opacity:1"
     d="m 59.064994,498.89947 25.111326,-19.67982 39.09299,-282.76997 30.59864,-42.39327 93.92667,-30.02858 39.43594,20.02197 192.85467,-62.347608 26.79481,14.041054 -34.91775,259.643384 -18.47378,30.23932 -352.86998,113.27352 z"
     id="path44" /><path
     d="M 154.83443,247.13578 468.26281,145.80812"
     style="display:none;fill:#f4c55e;stroke:#cfa84d;stroke-width:15.9269;stroke-linecap:round;stroke-linejoin:round;stroke-dasharray:none;stroke-dashoffset:0;stroke-opacity:1"
     id="path1-8" /><path
     d="M 154.83443,430.98353 468.26281,329.65587"
     style="display:none;fill:#f4c55e;stroke:#cfa84d;stroke-width:15.9269;stroke-linecap:round;stroke-linejoin:round;stroke-dasharray:none;stroke-dashoffset:0;stroke-opacity:1"
     id="path10" /><path
     style="opacity:1;fill:#f4c55e;stroke:#000000;stroke-width:10.24;stroke-linecap:round;stroke-linejoin:round;stroke-dasharray:none;stroke-dashoffset:0;stroke-opacity:1;paint-order:normal"
     d="m 171.82265,407.03912 7.77324,-151.22489 40.9862,44.51947 25.43969,-63.59924 11.30653,140.62499"
     id="path16" /><path
     style="opacity:1;fill:#f4c55e;stroke:#000000;stroke-width:10.24;stroke-linecap:round;stroke-linejoin:round;stroke-dasharray:none;stroke-dashoffset:0;stroke-opacity:1;paint-order:normal"
     d="m 282.76801,366.05293 -5.65326,-138.50502 c 0,0 62.32579,17.47906 65.01256,63.59924 2.0498,35.18606 -59.3593,74.90578 -59.3593,74.90578 z"
     id="path17" /><path
     style="opacity:1;fill:#f4c55e;stroke:#000000;stroke-width:10.24;stroke-linecap:round;stroke-linejoin:round;stroke-dasharray:none;stroke-dashoffset:0;stroke-opacity:1;paint-order:normal"
     d="m 425.51298,214.12139 c 0,0 -14.83982,-27.55967 -44.51946,-14.13317 -30.54012,13.81577 -19.78643,76.31911 -19.78643,76.31911 0,0 1.51776,49.99055 29.67965,52.99937 50.80123,5.4276 56.80104,-81.33175 30.38629,-72.7858 l -24.02636,7.77324"
     id="path18" /></svg>
